<svg width="33" height="34" viewBox="0 0 33 34" fill="none" xmlns="http://www.w3.org/2000/svg">
<path d="M29.9826 14.2614H28.875V14.2034H16.5V19.7966H24.2708C23.1371 23.0526 20.0908 25.3898 16.5 25.3898C11.9439 25.3898 8.25 21.6333 8.25 17C8.25 12.3667 11.9439 8.61019 16.5 8.61019C18.6031 8.61019 20.5164 9.41701 21.9732 10.7349L25.8624 6.77981C23.4066 4.45233 20.1217 3.01697 16.5 3.01697C8.90656 3.01697 2.75 9.27788 2.75 17C2.75 24.7222 8.90656 30.9831 16.5 30.9831C24.0934 30.9831 30.25 24.7222 30.25 17C30.25 16.0625 30.1551 15.1473 29.9826 14.2614Z" fill="#FFC107"/>
<path d="M4.33539 10.4916L8.85295 13.8608C10.0753 10.7832 13.0357 8.61019 16.5 8.61019C18.6031 8.61019 20.5164 9.41701 21.9732 10.7349L25.8624 6.77981C23.4066 4.45233 20.1218 3.01697 16.5 3.01697C11.2186 3.01697 6.63851 6.04919 4.33539 10.4916Z" fill="#FF3D00"/>
<path d="M16.5 30.983C20.0516 30.983 23.2788 29.6008 25.7187 27.353L21.4631 23.6909C20.0362 24.7944 18.2926 25.3913 16.5 25.3898C12.9236 25.3898 9.88694 23.0707 8.74294 19.8344L4.25906 23.3476C6.53469 27.876 11.1561 30.983 16.5 30.983Z" fill="#4CAF50"/>
<path d="M29.9826 14.2614H28.875V14.2034H16.5V19.7966H24.2708C23.7285 21.3462 22.7517 22.7003 21.461 23.6916L21.4631 23.6902L25.7187 27.3523C25.4176 27.6306 30.25 23.9915 30.25 17C30.25 16.0624 30.1551 15.1472 29.9826 14.2614Z" fill="#1976D2"/>
</svg>
